<?xml version="1.0" encoding="utf-8"?>
<!-- Generator: Adobe Illustrator 25.2.1, SVG Export Plug-In . SVG Version: 6.00 Build 0)  -->
<svg version="1.1" id="Layer_1" xmlns="http://www.w3.org/2000/svg" xmlns:xlink="http://www.w3.org/1999/xlink" x="0px" y="0px"
	 viewBox="0 0 32 32" style="enable-background:new 0 0 32 32;" xml:space="preserve">
<style type="text/css">
	.st0{fill:#4192C4;}
</style>
<path class="st0" d="M4,10v20c0,1.1,0.9,2,2,2h18c1.1,0,2-0.9,2-2V10H4z M10,28H8V14h2V28z M14,28h-2V14h2V28z M18,28h-2V14h2V28z
	 M22,28h-2V14h2V28z"/>
<path class="st0" d="M26.5,4H20V1.5C20,0.7,19.3,0,18.5,0h-7C10.7,0,10,0.7,10,1.5V4H3.5C2.7,4,2,4.7,2,5.5V8h26V5.5
	C28,4.7,27.3,4,26.5,4z M18,4h-6V2h6V4z"/>
</svg>
